<?xml version="1.0" encoding="utf-8"?>
<!-- Generator: Adobe Illustrator 17.1.0, SVG Export Plug-In . SVG Version: 6.00 Build 0)  -->
<!DOCTYPE svg PUBLIC "-//W3C//DTD SVG 1.1//EN" "http://www.w3.org/Graphics/SVG/1.1/DTD/svg11.dtd">
<svg version="1.1" id="Layer_1" xmlns="http://www.w3.org/2000/svg" xmlns:xlink="http://www.w3.org/1999/xlink" x="0px" y="0px"
	 width="24px" height="24px" viewBox="21 22 24 24" enable-background="new 21 22 24 24" xml:space="preserve">
<path fill="#E3E3E3" d="M39.7,39.7V35c0-2.5-1.3-3.7-3.1-3.7c-1.4,0-2.1,0.8-2.4,1.3v-1.2h-2.7c0,0.8,0,8.2,0,8.2h2.7v-4.6
	c0-0.2,0-0.5,0.1-0.7c0.2-0.5,0.6-1,1.4-1c1,0,1.4,0.7,1.4,1.8v4.4L39.7,39.7L39.7,39.7z M28.6,30.4c0.9,0,1.5-0.6,1.5-1.4
	c0-0.8-0.6-1.4-1.5-1.4s-1.5,0.6-1.5,1.4C27.1,29.7,27.7,30.4,28.6,30.4L28.6,30.4z M33,46c-6.6,0-12-5.4-12-12c0-6.6,5.4-12,12-12
	s12,5.4,12,12C45,40.6,39.6,46,33,46z M29.9,39.7v-8.2h-2.7v8.2H29.9z"/>
</svg>
