<?xml version="1.0" encoding="utf-8"?>
<!-- Generator: Adobe Illustrator 17.1.0, SVG Export Plug-In . SVG Version: 6.00 Build 0)  -->
<!DOCTYPE svg PUBLIC "-//W3C//DTD SVG 1.1//EN" "http://www.w3.org/Graphics/SVG/1.1/DTD/svg11.dtd">
<svg version="1.1" id="Layer_1" xmlns="http://www.w3.org/2000/svg" xmlns:xlink="http://www.w3.org/1999/xlink" x="0px" y="0px"
	 width="24px" height="24px" viewBox="21 22 24 24" enable-background="new 21 22 24 24" xml:space="preserve">
<path fill="#E3E3E3" d="M34.7,29.3c-1,0.4-1.7,1.4-1.6,2.4l0,0.4l-0.4-0.1c-1.5-0.2-2.9-0.9-4-2l-0.6-0.6L28,30
	c-0.3,0.9-0.1,1.9,0.5,2.5c0.3,0.4,0.3,0.4-0.3,0.2c-0.2-0.1-0.4-0.1-0.4-0.1c-0.1,0.1,0.1,0.8,0.3,1.1c0.2,0.4,0.7,0.8,1.1,1.1
	l0.4,0.2l-0.5,0c-0.5,0-0.5,0-0.4,0.2c0.2,0.6,0.8,1.1,1.6,1.4l0.5,0.2l-0.5,0.3c-0.7,0.4-1.5,0.6-2.2,0.6c-0.4,0-0.7,0-0.7,0.1
	c0,0.1,1,0.6,1.6,0.7c1.8,0.6,3.9,0.3,5.5-0.6c1.1-0.7,2.3-2,2.8-3.3c0.3-0.7,0.6-1.9,0.6-2.5c0-0.4,0-0.4,0.5-0.9
	c0.3-0.3,0.5-0.6,0.6-0.7c0.1-0.2,0.1-0.2-0.4,0c-0.7,0.3-0.8,0.2-0.5-0.2c0.3-0.3,0.6-0.8,0.6-0.9c0,0-0.1,0-0.3,0.1
	c-0.2,0.1-0.5,0.2-0.7,0.3l-0.5,0.1l-0.4-0.3c-0.2-0.2-0.5-0.3-0.7-0.4C35.7,29.2,35.1,29.2,34.7,29.3z M33,46c-6.6,0-12-5.4-12-12
	s5.4-12,12-12s12,5.4,12,12S39.6,46,33,46z"/>
</svg>
