<?xml version="1.0" encoding="utf-8"?>
<!-- Generator: Adobe Illustrator 17.1.0, SVG Export Plug-In . SVG Version: 6.00 Build 0)  -->
<!DOCTYPE svg PUBLIC "-//W3C//DTD SVG 1.1//EN" "http://www.w3.org/Graphics/SVG/1.1/DTD/svg11.dtd">
<svg version="1.1" id="Layer_1" xmlns="http://www.w3.org/2000/svg" xmlns:xlink="http://www.w3.org/1999/xlink" x="0px" y="0px"
	 width="24px" height="24px" viewBox="21 22 24 24" enable-background="new 21 22 24 24" xml:space="preserve">
<g>
	<path fill="#E3E3E3" d="M21.9,38.7C21.9,38.6,21.9,38.6,21.9,38.7C21.9,38.6,21.9,38.6,21.9,38.7z"/>
	<path fill="#E3E3E3" d="M21.8,38.2C21.8,38.2,21.8,38.2,21.8,38.2C21.8,38.2,21.8,38.2,21.8,38.2z"/>
	<path fill="#E3E3E3" d="M21,34.6C21,34.6,21,34.7,21,34.6C21,34.7,21,34.7,21,34.6C21,34.6,21,34.6,21,34.6z"/>
	<path fill="#E3E3E3" d="M44.1,29.4c0.2,0.4,0.3,0.9,0.5,1.3C44.4,30.3,44.3,29.8,44.1,29.4z"/>
	<path fill="#E3E3E3" d="M21,34.7c0,0.1,0,0.1,0,0.2C21,34.8,21,34.8,21,34.7C21,34.7,21,34.7,21,34.7z"/>
	<path fill="#E3E3E3" d="M22.4,39.5c0-0.1-0.1-0.1-0.1-0.2C22.3,39.4,22.3,39.5,22.4,39.5z"/>
	<path fill="#E3E3E3" d="M22.2,39.3c0,0,0-0.1-0.1-0.1C22.2,39.2,22.2,39.3,22.2,39.3z"/>
	<path fill="#E3E3E3" d="M22.1,39c0-0.1-0.1-0.1-0.1-0.2C22,38.8,22,38.9,22.1,39z"/>
	<path fill="#E3E3E3" d="M21.2,36.2C21.2,36.2,21.2,36.2,21.2,36.2C21.2,36.2,21.2,36.2,21.2,36.2z"/>
	<path fill="#E3E3E3" d="M21.2,36c0-0.1,0-0.2,0-0.2C21.1,35.8,21.2,35.9,21.2,36z"/>
	<path fill="#E3E3E3" d="M21,34.6c0-0.2,0-0.4,0-0.6C21,34.2,21,34.4,21,34.6z"/>
	<path fill="#E3E3E3" d="M21.3,36.5c0-0.1,0-0.2,0-0.2C21.2,36.4,21.3,36.5,21.3,36.5z"/>
	<path fill="#E3E3E3" d="M21.7,38c0-0.1-0.1-0.2-0.1-0.3C21.6,37.7,21.6,37.9,21.7,38z"/>
	<path fill="#E3E3E3" d="M21.5,37.6c0,0,0-0.1,0-0.1C21.5,37.5,21.5,37.5,21.5,37.6z"/>
	<path fill="#E3E3E3" d="M21.5,37.4c0-0.1-0.1-0.2-0.1-0.3C21.4,37.2,21.5,37.3,21.5,37.4z"/>
	<path fill="#E3E3E3" d="M21.7,38.2c0-0.1,0-0.1-0.1-0.2C21.7,38,21.7,38.1,21.7,38.2z"/>
	<path fill="#E3E3E3" d="M22.5,39.8c0-0.1-0.1-0.1-0.1-0.2C22.5,39.7,22.5,39.8,22.5,39.8z"/>
	<polygon fill="#E3E3E3" points="25.9,43.6 25.9,43.6 25.9,43.6 	"/>
	<path fill="#E3E3E3" d="M25.3,43.2C25.3,43.2,25.3,43.2,25.3,43.2C25.3,43.2,25.3,43.2,25.3,43.2z"/>
	<path fill="#E3E3E3" d="M33,46C33,46,33.1,46,33,46C33.1,46,33,46,33,46C33,46,33,46,33,46z"/>
	<path fill="#E3E3E3" d="M34.1,46c-0.1,0-0.1,0-0.2,0C34,46,34,46,34.1,46z"/>
	<path fill="#E3E3E3" d="M34.9,45.8c-0.3,0-0.6,0.1-0.8,0.1C34.4,45.9,34.6,45.9,34.9,45.8z"/>
	<path fill="#E3E3E3" d="M34.9,45.8C34.9,45.8,34.9,45.8,34.9,45.8C34.9,45.8,34.9,45.8,34.9,45.8C34.9,45.8,34.9,45.8,34.9,45.8z"
		/>
	<path fill="#E3E3E3" d="M25.3,43.2c-0.1-0.1-0.3-0.2-0.4-0.4C25,42.9,25.1,43.1,25.3,43.2z"/>
	<path fill="#E3E3E3" d="M33.9,46c-0.3,0-0.6,0-0.8,0C33.3,46,33.6,46,33.9,46z"/>
	<path fill="#E3E3E3" d="M25.9,43.6c-0.2-0.1-0.4-0.3-0.5-0.4C25.5,43.4,25.7,43.5,25.9,43.6z"/>
	<path fill="#E3E3E3" d="M23.3,41.1c-0.1-0.1-0.1-0.2-0.2-0.3C23.2,40.9,23.2,41,23.3,41.1z"/>
	<path fill="#E3E3E3" d="M24.9,42.8c0,0-0.1-0.1-0.1-0.1C24.8,42.7,24.8,42.8,24.9,42.8z"/>
	<path fill="#E3E3E3" d="M22.7,40.1C22.7,40.1,22.7,40.1,22.7,40.1C22.7,40.1,22.7,40.1,22.7,40.1z"/>
	<path fill="#E3E3E3" d="M23.8,41.7c0-0.1-0.1-0.1-0.1-0.2C23.7,41.6,23.7,41.6,23.8,41.7z"/>
	<path fill="#E3E3E3" d="M22.8,40.3c0-0.1-0.1-0.1-0.1-0.2C22.7,40.2,22.8,40.3,22.8,40.3z"/>
	<path fill="#E3E3E3" d="M24.7,42.7c-0.1-0.1-0.2-0.2-0.3-0.3C24.5,42.5,24.6,42.6,24.7,42.7z"/>
	<path fill="#E3E3E3" d="M24.4,42.4c-0.1-0.1-0.1-0.1-0.2-0.2C24.3,42.3,24.3,42.3,24.4,42.4z"/>
	<path fill="#E3E3E3" d="M24.2,42.2C24.1,42.1,24,42,24,41.9C24,42,24.1,42.1,24.2,42.2z"/>
	<path fill="#E3E3E3" d="M29.8,27.2c-0.7,0-1.5,0.4-2,0.9c-0.5,0.6-0.6,1.3-0.6,2.1c0,1.9,1.1,5,3.5,5c0.7,0,1.4-0.3,1.9-0.8
		c0.6-0.6,0.7-1.5,0.7-2C33.3,30.3,32.1,27.2,29.8,27.2z"/>
	<path fill="#E3E3E3" d="M21.9,38.7c0,0,0,0.1,0,0.1C22,38.8,22,38.8,21.9,38.7C22,38.7,22,38.7,21.9,38.7z"/>
	<path fill="#E3E3E3" d="M23.4,41.2C23.4,41.2,23.4,41.3,23.4,41.2C23.5,41.3,23.5,41.3,23.4,41.2C23.4,41.2,23.4,41.2,23.4,41.2z"
		/>
	<path fill="#E3E3E3" d="M45,34c0-1.1-0.2-2.2-0.5-3.3h-2.8v3.2h-1.3v-3.2h-3.1v-1.3h3.1v-3.1h1.3v3.1h2.4C42.3,25.1,38,22,33,22
		c-6.6,0-12,5.4-12,12c0,0.2,0,0.4,0,0.7c0,0,0,0.1,0,0.1c0,0,0,0.1,0,0.1c0,0.1,0,0.3,0,0.4c0,0,0,0,0,0.1c0,0.1,0,0.1,0,0.2
		c0,0.1,0,0.3,0.1,0.4c0,0.1,0,0.2,0,0.2c0,0.1,0.1,0.3,0.1,0.4c0,0.1,0,0.1,0,0.2c0,0,0,0.1,0,0.1c0,0.2,0.1,0.3,0.1,0.5
		c0,0.1,0,0.1,0.1,0.2c0.1,0.2,0.1,0.4,0.2,0.6c0,0.1,0.1,0.1,0.1,0.2c0.1,0.1,0.1,0.3,0.2,0.4c0,0.1,0.1,0.2,0.1,0.2
		c0.1,0.1,0.1,0.2,0.2,0.4c0,0.1,0.1,0.2,0.1,0.2c0.1,0.1,0.1,0.2,0.2,0.4c0,0.1,0.1,0.1,0.1,0.2c0.1,0.1,0.2,0.3,0.3,0.4
		c0,0,0,0,0,0.1c0,0,0.1,0.1,0.1,0.1c0.1,0.1,0.2,0.3,0.3,0.4c0,0,0.1,0.1,0.1,0.1c0,0,0,0.1,0.1,0.1c0.1,0.1,0.2,0.2,0.3,0.4
		c0,0,0,0,0,0.1c0.3-0.6,0.9-1.1,1.6-1.6c1.7-1.1,4.1-1.2,5.3-1.3c-0.4-0.5-0.8-1-0.8-1.9c0-0.5,0.1-0.8,0.3-1.1
		c-0.3,0-0.6,0.1-0.9,0.1c-3,0-4.6-2.2-4.6-4.4c0-1.3,0.6-2.7,1.8-3.8c1.6-1.3,3.5-1.5,5-1.5h5.8l-1.8,1h-1.7c0.6,0.5,2,1.7,2,3.8
		c0,2.1-1.2,3-2.3,4c-0.4,0.4-0.8,0.8-0.8,1.4c0,0.6,0.4,1,0.7,1.2l1,0.8c1.2,1,2.4,2,2.4,3.9c0,1.3-0.6,2.5-1.7,3.5
		C40.6,44.9,45,40,45,34z"/>
	<path fill="#E3E3E3" d="M22.1,39c0,0.1,0.1,0.2,0.1,0.2C22.1,39.1,22.1,39.1,22.1,39C22.1,39,22.1,39,22.1,39z"/>
	<path fill="#E3E3E3" d="M21.5,37.6C21.5,37.6,21.6,37.6,21.5,37.6C21.6,37.6,21.6,37.6,21.5,37.6C21.5,37.6,21.5,37.6,21.5,37.6z"
		/>
	<path fill="#E3E3E3" d="M21.7,38.2C21.7,38.2,21.8,38.2,21.7,38.2C21.8,38.2,21.8,38.2,21.7,38.2C21.7,38.2,21.7,38.2,21.7,38.2z"
		/>
	<path fill="#E3E3E3" d="M23.5,41.3c0.1,0.1,0.1,0.2,0.2,0.2C23.6,41.5,23.6,41.4,23.5,41.3C23.5,41.3,23.5,41.3,23.5,41.3z"/>
	<path fill="#E3E3E3" d="M22.2,39.3C22.2,39.3,22.3,39.4,22.2,39.3C22.3,39.4,22.3,39.4,22.2,39.3C22.3,39.3,22.2,39.3,22.2,39.3z"
		/>
	<path fill="#E3E3E3" d="M23.3,41.1c0,0,0.1,0.1,0.1,0.1C23.4,41.2,23.4,41.2,23.3,41.1C23.3,41.1,23.3,41.1,23.3,41.1z"/>
	<path fill="#E3E3E3" d="M23,40.6C23,40.6,23,40.7,23,40.6C23,40.7,23,40.6,23,40.6C23,40.6,23,40.6,23,40.6z"/>
	<path fill="#E3E3E3" d="M22.5,39.8c0,0.1,0.1,0.2,0.1,0.2C22.6,40,22.6,40,22.5,39.8C22.6,39.9,22.5,39.9,22.5,39.8z"/>
	<path fill="#E3E3E3" d="M22.7,40.1C22.7,40.1,22.7,40.1,22.7,40.1C22.7,40.2,22.7,40.2,22.7,40.1C22.7,40.1,22.7,40.1,22.7,40.1z"
		/>
	<path fill="#E3E3E3" d="M22.4,39.5c0,0,0,0.1,0.1,0.1C22.4,39.7,22.4,39.6,22.4,39.5C22.4,39.6,22.4,39.6,22.4,39.5z"/>
	<path fill="#E3E3E3" d="M23,40.7c0,0,0.1,0.1,0.1,0.1C23.1,40.8,23.1,40.8,23,40.7C23.1,40.7,23.1,40.7,23,40.7z"/>
	<path fill="#E3E3E3" d="M21.8,38.2c0,0.1,0.1,0.2,0.1,0.4c0-0.1-0.1-0.1-0.1-0.2C21.8,38.3,21.8,38.3,21.8,38.2z"/>
	<path fill="#E3E3E3" d="M21.1,35.4c0,0.1,0,0.1,0,0.2C21.1,35.5,21.1,35.4,21.1,35.4C21.1,35.4,21.1,35.4,21.1,35.4z"/>
	<path fill="#E3E3E3" d="M22.8,40.3c0.1,0.1,0.1,0.2,0.2,0.3c0,0,0,0,0-0.1C22.9,40.5,22.9,40.4,22.8,40.3z"/>
	<path fill="#E3E3E3" d="M21.1,35.5c0,0.1,0,0.1,0,0.2C21.1,35.7,21.1,35.7,21.1,35.5C21.1,35.6,21.1,35.6,21.1,35.5z"/>
	<path fill="#E3E3E3" d="M34.8,43.4c0-1.4-0.9-2.2-3-3.7c-0.2,0-0.4,0-0.6,0c-0.3,0-1.8,0.1-2.9,0.4c-0.6,0.2-2.4,0.9-2.4,2.9
		c0,0.2,0,0.4,0.1,0.6c2,1.5,4.5,2.4,7.1,2.4c0,0,0,0,0,0C34.2,45.5,34.8,44.5,34.8,43.4z"/>
	<path fill="#E3E3E3" d="M21.1,35.2c0,0.1,0,0.1,0,0.2c0,0,0,0,0,0C21.1,35.3,21.1,35.2,21.1,35.2z"/>
	<path fill="#E3E3E3" d="M21,34.9c0,0.1,0,0.2,0,0.3C21,35.1,21,35,21,34.9C21,34.9,21,34.9,21,34.9z"/>
	<path fill="#E3E3E3" d="M21.5,37.4C21.5,37.4,21.5,37.4,21.5,37.4C21.5,37.4,21.5,37.4,21.5,37.4C21.5,37.4,21.5,37.4,21.5,37.4z"
		/>
	<path fill="#E3E3E3" d="M23.8,41.7C23.8,41.7,23.8,41.7,23.8,41.7C23.9,41.8,23.9,41.8,23.8,41.7C23.8,41.7,23.8,41.7,23.8,41.7
		C23.8,41.7,23.8,41.7,23.8,41.7z"/>
	<path fill="#E3E3E3" d="M21.3,36.8c0,0,0,0.1,0,0.1C21.4,36.9,21.4,36.9,21.3,36.8C21.3,36.8,21.3,36.8,21.3,36.8z"/>
	<path fill="#E3E3E3" d="M21.4,36.9c0,0.1,0,0.1,0,0.2C21.4,37.1,21.4,37,21.4,36.9C21.4,37,21.4,36.9,21.4,36.9z"/>
	<path fill="#E3E3E3" d="M23.9,41.8c0,0,0.1,0.1,0.1,0.1C23.9,41.8,23.9,41.8,23.9,41.8C23.9,41.8,23.9,41.8,23.9,41.8z"/>
	<path fill="#E3E3E3" d="M21.3,36.5c0,0.1,0,0.2,0.1,0.3c0,0,0-0.1,0-0.1C21.3,36.6,21.3,36.6,21.3,36.5z"/>
	<path fill="#E3E3E3" d="M21.2,36c0,0.1,0,0.1,0,0.2C21.2,36.1,21.2,36.1,21.2,36C21.2,36,21.2,36,21.2,36z"/>
	<path fill="#E3E3E3" d="M21.2,36.2c0,0,0,0.1,0,0.1C21.2,36.3,21.2,36.3,21.2,36.2C21.2,36.2,21.2,36.2,21.2,36.2z"/>
</g>
</svg>
